# xmcd CD database file
#
# Track frame offsets:
#	150
#	15046
#	30796
#	46234
#	60816
#	76701
#	90399
#	105172
#	122154
#	135621
#	152475
#	168333
#	181873
#	192783
#	212315
#	225244
#	235499
#	242000
#	258625
#	278379
#	297467
#	310103
#
# Disc length: 4259 seconds
#
# Revision: 0
# Processed by: cddbd v1.5.2PL0 Copyright (c) Steve Scherf et al.
# Submitted via: ACXtractor (MTCDDB.DLL V2003.07.15)
#
DISCID=f610a116
DTITLE=Slim Dusty - West of Winton
DYEAR=2000
DGENRE=Country
TTITLE0=Peppimenarti
TTITLE1=Waltzing Matilda
TTITLE2=West of Winton
TTITLE3=Saddle Up And Ride
TTITLE4=The Vanishing Breed
TTITLE5=The Old Saddle
TTITLE6=Truthful Fella
TTITLE7=Old Scobie
TTITLE8=Back In the Show Again
TTITLE9=Finney's Home Brew
TTITLE10=The Shearer's Story
TTITLE11=Ham and Eggs
TTITLE12=Sassafras Gap
TTITLE13=Dan the Wreck
TTITLE14=Why Don't You Just go Fishing
TTITLE15=A Rose has Died Tonight
TTITLE16=Cane Toad Plain
TTITLE17=Mad Joe the Fisherman
TTITLE18=The Great Australian Winger
TTITLE19=The Old Holden Waltz
TTITLE20=The Wild Colonial Boy
TTITLE21=Catgut Creek
EXTD=ID3G:   2 YEAR: 2000
EXTT0=
EXTT1=
EXTT2=
EXTT3=
EXTT4=
EXTT5=
EXTT6=
EXTT7=
EXTT8=
EXTT9=
EXTT10=
EXTT11=
EXTT12=
EXTT13=
EXTT14=
EXTT15=
EXTT16=
EXTT17=
EXTT18=
EXTT19=
EXTT20=
EXTT21=
PLAYORDER=
